<svg width="180" height="141" viewBox="0 0 180 141" fill="none" xmlns="http://www.w3.org/2000/svg">
<path d="M35.4408 67.3261L31.4733 80.7496L37.1073 85.6201L36.5698 87.4386L16.6067 69.9417L17.1051 68.2555L43.3615 64.46L42.824 66.2785L35.4408 67.3261ZM33.8355 67.5335L18.6998 69.6632L30.2491 79.6675L33.8355 67.5335ZM63.1257 44.7614L49.3708 29.372L53.4406 49.117L52.7983 49.6908L33.7188 43.4484L47.4021 58.8092L46.1175 59.9569L30.0734 41.9459L31.1782 40.9589L51.6196 47.6942L47.2614 26.5897L48.3405 25.6256L64.4103 43.6137L63.1257 44.7614ZM86.6677 31.4126L72.8999 33.8344L71.0552 41.0555L69.1901 41.3836L75.9401 15.6903L77.6696 15.3861L92.7581 37.238L90.8931 37.566L86.6677 31.4126ZM85.7673 30.0656L77.1214 17.443L73.322 32.2547L85.7673 30.0656ZM114.317 41.7101L113.886 43.2364L95.1995 37.9467L95.5366 36.7522L117.327 20.7765L101.523 16.3028L101.954 14.7765L120.077 19.9067L119.74 21.1012L97.9826 37.0863L114.317 41.7101ZM122.668 47.7296C122.04 45.6348 121.981 43.5387 122.49 41.4412C122.999 39.3437 124.051 37.4688 125.647 35.8164C127.242 34.1641 129.078 33.0482 131.155 32.4689C133.231 31.8895 135.325 31.8789 137.436 32.4369C139.548 32.9949 141.453 34.097 143.152 35.743C144.852 37.3889 146.019 39.2552 146.655 41.3417C147.29 43.4281 147.353 45.5201 146.845 47.6176C146.336 49.7151 145.276 51.5983 143.664 53.2672C142.052 54.9361 140.208 56.0602 138.132 56.6395C136.056 57.2189 133.966 57.2254 131.863 56.6591C129.759 56.0928 127.858 54.9867 126.158 53.3407C124.459 51.6947 123.295 49.8243 122.668 47.7296ZM132.176 54.9957C133.985 55.4693 135.791 55.4513 137.592 54.9416C139.394 54.4319 140.989 53.4583 142.377 52.0207C143.765 50.5831 144.684 48.9543 145.132 47.1342C145.581 45.3141 145.538 43.5062 145.005 41.7106C144.472 39.9151 143.479 38.3142 142.027 36.9079C140.576 35.5016 138.941 34.5576 137.123 34.0759C135.305 33.5943 133.495 33.6083 131.693 34.118C129.892 34.6277 128.297 35.6014 126.909 37.0389C125.521 38.4765 124.602 40.1053 124.154 41.9255C123.705 43.7456 123.752 45.5574 124.293 47.361C124.835 49.1645 125.831 50.7695 127.283 52.1757C128.735 53.582 130.366 54.522 132.176 54.9957ZM151.23 71.9025L144.383 68.2827L138.307 70.0794L137.81 68.3929L160.924 61.5576L161.421 63.2441L146.562 67.6383L165.682 77.6954L166.286 79.7457L152.783 72.6655L143.377 87.2754L142.772 85.2251L151.23 71.9025Z" fill="black"/>
<mask id="mask0_58_8" style="mask-type:luminance" maskUnits="userSpaceOnUse" x="53" y="53" width="74" height="75">
<path d="M53.1034 53.8291H126.9V127.734H53.1034V53.8291Z" fill="white"/>
</mask>
<g mask="url(#mask0_58_8)">
<mask id="mask1_58_8" style="mask-type:luminance" maskUnits="userSpaceOnUse" x="53" y="53" width="74" height="75">
<path d="M53.1034 53.8291H126.9V127.734H53.1034V53.8291Z" fill="white"/>
</mask>
<g mask="url(#mask1_58_8)">
<path fill-rule="evenodd" clip-rule="evenodd" d="M116.24 56.2927H55.5634V117.059H116.24V56.2927ZM53.1034 53.8291V119.523H118.7V53.8291H53.1034Z" fill="black"/>
</g>
<mask id="mask2_58_8" style="mask-type:luminance" maskUnits="userSpaceOnUse" x="53" y="53" width="74" height="75">
<path d="M53.1034 53.8291H126.9V127.734H53.1034V53.8291Z" fill="white"/>
</mask>
<g mask="url(#mask2_58_8)">
<path fill-rule="evenodd" clip-rule="evenodd" d="M124.44 64.5043H63.7629V125.271H124.44V64.5043ZM61.3029 62.0406V127.734H126.9V62.0406H61.3029Z" fill="black"/>
</g>
<path d="M93.5009 99.9009H97.1761L95.521 94.5871H84.179L82.5239 99.9009H86.4182V106.58H72.4232V99.9009H75.1735L85.2256 69.6271H94.9856L104.819 99.9009H107.496V106.58H93.5009V99.9009ZM86.1018 88.3471H93.5496L89.8013 76.3302L86.1018 88.3471Z" fill="black"/>
</g>
</svg>
