<svg width="143" height="146" viewBox="0 0 143 146" fill="none" xmlns="http://www.w3.org/2000/svg">
<path d="M12.7234 133.68V130.368H14.2231V122.029H12.7234V118.717L20.2219 118.697V122.029H19.0298V124.494H22.6252V122.029H21.4332V118.697L28.9316 118.717V122.029H27.4319V130.368H28.9316V133.68H21.4332V130.368H22.6252V127.71H19.0298V130.368H20.2219V133.68H12.7234ZM33.8821 132.948C32.7477 132.28 31.8857 131.359 31.2961 130.185C30.7065 129.01 30.4116 127.671 30.4116 126.169C30.4116 124.616 30.7065 123.255 31.2961 122.087C31.8857 120.918 32.7445 120.017 33.8725 119.381C35.0004 118.746 36.3527 118.428 37.9293 118.428C39.5059 118.428 40.8582 118.746 41.9862 119.381C43.1141 120.017 43.9729 120.918 44.5625 122.087C45.1522 123.255 45.447 124.616 45.447 126.169C45.447 127.671 45.1522 129.01 44.5625 130.185C43.9729 131.359 43.1109 132.28 41.9765 132.948C40.8422 133.616 39.4931 133.949 37.9293 133.949C36.3655 133.949 35.0165 133.616 33.8821 132.948ZM39.4867 129.385C39.8456 128.564 40.025 127.466 40.025 126.092C40.025 124.757 39.852 123.701 39.5059 122.924C39.1598 122.148 38.6343 121.759 37.9293 121.759C37.2243 121.759 36.6988 122.148 36.3527 122.924C36.0066 123.701 35.8336 124.757 35.8336 126.092C35.8336 127.466 36.013 128.564 36.3719 129.385C36.7308 130.207 37.25 130.618 37.9293 130.618C38.6087 130.618 39.1278 130.207 39.4867 129.385ZM47.9276 133.68V130.31H49.4273V122.029H47.9276V118.717H55.7336V122.029H54.234V130.31H56.6373L57.541 127.017H59.9251V133.68H47.9276ZM64.4528 132.948C63.3184 132.28 62.4564 131.359 61.8668 130.185C61.2771 129.01 60.9823 127.671 60.9823 126.169C60.9823 124.616 61.2771 123.255 61.8668 122.087C62.4564 120.918 63.3152 120.017 64.4431 119.381C65.5711 118.746 66.9234 118.428 68.5 118.428C70.0766 118.428 71.4289 118.746 72.5568 119.381C73.6848 120.017 74.5436 120.918 75.1332 122.087C75.7228 123.255 76.0177 124.616 76.0177 126.169C76.0177 127.671 75.7228 129.01 75.1332 130.185C74.5436 131.359 73.6816 132.28 72.5472 132.948C71.4128 133.616 70.0638 133.949 68.5 133.949C66.9362 133.949 65.5871 133.616 64.4528 132.948ZM70.0574 129.385C70.4163 128.564 70.5957 127.466 70.5957 126.092C70.5957 124.757 70.4227 123.701 70.0766 122.924C69.7305 122.148 69.205 121.759 68.5 121.759C67.795 121.759 67.2695 122.148 66.9234 122.924C66.5773 123.701 66.4043 124.757 66.4043 126.092C66.4043 127.466 66.5837 128.564 66.9426 129.385C67.3015 130.207 67.8206 130.618 68.5 130.618C69.1793 130.618 69.6985 130.207 70.0574 129.385ZM81.6611 133.073C80.5139 132.489 79.5974 131.61 78.9116 130.435C78.2259 129.26 77.883 127.819 77.883 126.112C77.883 124.674 78.1426 123.374 78.6617 122.212C79.1808 121.05 79.9435 120.129 80.9497 119.449C81.9559 118.768 83.1704 118.428 84.5931 118.428C85.3238 118.428 85.9775 118.598 86.5543 118.938C87.1311 119.278 87.5477 119.712 87.804 120.238L88.1885 118.717H91.111V124.86H88.1116V124.552C88.1116 123.756 87.929 123.104 87.5637 122.597C87.1984 122.09 86.6568 121.836 85.939 121.836C85.4519 121.836 85.0065 122.023 84.6028 122.395C84.199 122.767 83.8818 123.255 83.651 123.858C83.4203 124.462 83.3049 125.085 83.3049 125.726C83.3049 126.985 83.619 127.97 84.2471 128.682C84.8751 129.395 85.7339 129.751 86.8234 129.751C87.5925 129.751 88.3071 129.623 88.9672 129.366C89.6273 129.109 90.1689 128.833 90.5919 128.538L90.8034 128.711V132.717C90.0087 133.179 89.1691 133.5 88.2847 133.68C87.4003 133.86 86.4581 133.949 85.4584 133.949C84.074 133.949 82.8083 133.657 81.6611 133.073ZM92.3032 133.68V130.368H93.7836L96.36 122.029H94.3989V118.717H103.705L107.031 130.368H108.511V133.68H100.109V130.368H101.321L100.917 128.769H97.5328L97.1099 130.368H98.8979V133.68H92.3032ZM98.0135 126.497H100.475L99.3786 121.913L98.0135 126.497ZM109.3 133.68V130.368H111.107V122.029H109.3V118.717H117.356L120.259 125.919L123.124 118.717H130.641V122.029H128.834V130.368H130.641V133.68H122.816V130.368H124.027V124.783L120.72 133.68H118.01L114.106 124.571V130.368H115.606V133.68H109.3Z" fill="black"/>
<mask id="mask0_64_2" style="mask-type:luminance" maskUnits="userSpaceOnUse" x="19" y="12" width="105" height="104">
<path d="M19.9986 12.0505H123.001V115.218H19.9986V12.0505Z" fill="white"/>
</mask>
<g mask="url(#mask0_64_2)">
<mask id="mask1_64_2" style="mask-type:luminance" maskUnits="userSpaceOnUse" x="19" y="12" width="105" height="104">
<path d="M19.9986 12.0505H123.001V115.218H19.9986V12.0505Z" fill="white"/>
</mask>
<g mask="url(#mask1_64_2)">
<path fill-rule="evenodd" clip-rule="evenodd" d="M71.5 12.0505L19.9986 115.218H123.001L71.5 12.0505ZM71.5 20.595L26.1714 111.397H116.829L71.5 20.595Z" fill="black"/>
</g>
<mask id="mask2_64_2" style="mask-type:luminance" maskUnits="userSpaceOnUse" x="19" y="12" width="105" height="104">
<path d="M19.9986 12.0505H123.001V115.218H19.9986V12.0505Z" fill="white"/>
</mask>
<g mask="url(#mask2_64_2)">
<path fill-rule="evenodd" clip-rule="evenodd" d="M71.5 85.4212L32.5981 111.397H110.402L71.5 85.4212ZM71.5 80.8293L19.9986 115.218H123.001L71.5 80.8293Z" fill="black"/>
</g>
<mask id="mask3_64_2" style="mask-type:luminance" maskUnits="userSpaceOnUse" x="19" y="12" width="105" height="104">
<path d="M19.9986 12.0505H123.001V115.218H19.9986V12.0505Z" fill="white"/>
</mask>
<g mask="url(#mask3_64_2)">
<path d="M69.5927 19.696H73.4074V84.6503H69.5927V19.696Z" fill="black"/>
</g>
</g>
</svg>
