<svg width="132" height="142" viewBox="0 0 132 142" fill="none" xmlns="http://www.w3.org/2000/svg">
<path d="M12.9615 130.314V129.895L15.0804 128.845V114.47L12.9615 113.421V113.001H20.2339C22.0651 113.001 23.5082 113.382 24.5633 114.142C25.6184 114.903 26.146 115.948 26.146 117.277C26.146 118.256 25.8146 119.122 25.1519 119.874C24.4892 120.626 23.6172 121.203 22.5359 121.605L27.4801 128.924L29.2328 129.895V130.314H25.0211L19.9985 122.34H17.8272V128.819L19.7892 129.895V130.314H12.9615ZM19.3706 114.444H17.8272V120.949H19.5276C20.6088 120.949 21.5026 120.639 22.2089 120.018C22.9152 119.397 23.2684 118.606 23.2684 117.644C23.2684 116.647 22.924 115.865 22.2351 115.297C21.5462 114.728 20.5914 114.444 19.3706 114.444ZM36.4274 130.577C35.2589 130.577 34.2343 130.301 33.3536 129.75C32.4729 129.199 31.784 128.456 31.287 127.521C30.79 126.585 30.5414 125.54 30.5414 124.386C30.5414 123.232 30.79 122.187 31.287 121.251C31.784 120.316 32.4729 119.577 33.3536 119.035C34.2343 118.492 35.2589 118.221 36.4274 118.221C37.5958 118.221 38.616 118.492 39.488 119.035C40.36 119.577 41.0445 120.316 41.5416 121.251C42.0386 122.187 42.2871 123.232 42.2871 124.386C42.2871 125.54 42.0386 126.585 41.5416 127.521C41.0445 128.456 40.36 129.199 39.488 129.75C38.616 130.301 37.5958 130.577 36.4274 130.577ZM36.7674 129.422C37.4301 129.422 37.9708 129.204 38.3893 128.767C38.8079 128.329 39.1131 127.77 39.3049 127.088C39.4967 126.406 39.5927 125.68 39.5927 124.91C39.5927 123.984 39.4749 123.096 39.2395 122.248C39.0041 121.4 38.6335 120.705 38.1277 120.163C37.622 119.62 36.9593 119.349 36.1396 119.349C35.4769 119.349 34.9275 119.564 34.4915 119.992C34.0555 120.42 33.7373 120.976 33.5367 121.658C33.3362 122.34 33.2359 123.066 33.2359 123.835C33.2359 124.762 33.358 125.654 33.6021 126.511C33.8463 127.368 34.2299 128.067 34.7531 128.609C35.2763 129.151 35.9478 129.422 36.7674 129.422ZM44.929 130.314V129.895L46.6032 129.055V121.212L45.0075 119.9V119.69L48.6175 118.221H48.8006L49.0361 120.163H49.1669C49.8122 119.515 50.4313 119.03 51.0242 118.707C51.6172 118.383 52.2799 118.221 53.0123 118.221C53.8495 118.221 54.5645 118.409 55.1574 118.785C55.7504 119.161 56.1341 119.717 56.3085 120.451H56.4131C57.1281 119.699 57.7996 119.139 58.4274 118.772C59.0552 118.405 59.7615 118.221 60.5463 118.221C61.5578 118.221 62.3818 118.479 63.0184 118.995C63.6549 119.511 63.9732 120.285 63.9732 121.317V129.055L65.6474 129.895V130.314H59.7615V129.895L61.5142 129.055V122.523C61.5142 121.771 61.2962 121.207 60.8602 120.831C60.4242 120.455 59.8662 120.267 59.186 120.267C58.6454 120.267 58.1309 120.359 57.6426 120.543C57.1543 120.727 56.7444 120.993 56.4131 121.343V129.055L58.1135 129.895V130.314H52.306V129.895L53.9541 129.055V122.523C53.9541 121.771 53.7405 121.207 53.3132 120.831C52.8859 120.455 52.3322 120.267 51.652 120.267C51.2335 120.267 50.7757 120.337 50.2787 120.477C49.7816 120.617 49.3762 120.836 49.0622 121.133V129.055L50.658 129.895V130.314H44.929ZM69.1524 130.55V113.631L67.5567 112.293V112.083L71.4283 110.64H71.6114V119.822H71.7161C72.3788 119.262 73.0153 118.855 73.6257 118.602C74.2361 118.348 74.8988 118.221 75.6139 118.221C76.4684 118.221 77.2358 118.449 77.9159 118.903C78.5961 119.358 79.1367 120.001 79.5378 120.831C79.9389 121.662 80.1395 122.663 80.1395 123.835C80.1395 125.252 79.8648 126.463 79.3155 127.468C78.7661 128.474 78.0249 129.243 77.0919 129.777C76.1589 130.31 75.1256 130.577 73.992 130.577C73.2595 130.577 72.5793 130.511 71.9515 130.38C71.3237 130.249 70.7395 130.061 70.1988 129.816L69.3356 130.55H69.1524ZM74.0181 120.11C73.181 120.11 72.3788 120.346 71.6114 120.818V128.268C72.0474 128.635 72.4921 128.898 72.9456 129.055C73.399 129.213 73.9048 129.291 74.4628 129.291C75.0384 129.291 75.5659 129.134 76.0455 128.819C76.5251 128.504 76.9131 127.993 77.2096 127.284C77.5061 126.576 77.6543 125.636 77.6543 124.465C77.6543 123.468 77.4886 122.646 77.1573 121.999C76.8259 121.352 76.3856 120.875 75.8362 120.569C75.2869 120.263 74.6808 120.11 74.0181 120.11ZM85.7384 130.577C84.9013 130.577 84.2081 130.327 83.6588 129.829C83.1094 129.331 82.8347 128.644 82.8347 127.77C82.8347 126.913 83.1443 126.174 83.7634 125.553C84.3825 124.932 85.4594 124.438 86.9941 124.071L89.4793 123.494V121.658C89.4793 121.028 89.2482 120.504 88.786 120.084C88.3239 119.664 87.7876 119.454 87.1772 119.454C86.5319 119.454 86.0829 119.62 85.83 119.953C85.5771 120.285 85.4507 120.74 85.4507 121.317V122.156L85.3199 122.287H83.8811C83.6195 122.287 83.4408 122.239 83.3448 122.143C83.2489 122.047 83.201 121.841 83.201 121.527C83.201 121.142 83.3187 120.753 83.5541 120.359C83.7896 119.966 84.1514 119.62 84.6397 119.323C85.1629 118.991 85.6948 118.724 86.2355 118.523C86.7761 118.322 87.3516 118.221 87.962 118.221C88.6247 118.221 89.2656 118.313 89.8847 118.497C90.5038 118.68 91.0052 118.991 91.3889 119.428C91.7726 119.865 91.9644 120.451 91.9644 121.186V128.504C92.0865 128.627 92.2565 128.732 92.4745 128.819C92.6925 128.906 92.9934 128.95 93.377 128.95H94.2926L94.3973 129.003V129.16C94.188 129.527 93.8697 129.855 93.4424 130.144C93.0152 130.432 92.4963 130.577 91.8859 130.577C91.293 130.577 90.8134 130.432 90.4472 130.144C90.0809 129.855 89.8193 129.457 89.6624 128.95H89.4793C89.0258 129.405 88.4721 129.79 87.8181 130.104C87.1641 130.419 86.4709 130.577 85.7384 130.577ZM85.2152 127.193C85.2152 128.277 85.8518 128.819 87.1249 128.819C87.5086 128.819 87.8792 128.78 88.2367 128.701C88.5942 128.622 89.0084 128.487 89.4793 128.294V124.412C88.2236 124.657 87.2906 124.919 86.6802 125.199C86.0698 125.479 85.673 125.781 85.4899 126.104C85.3068 126.428 85.2152 126.79 85.2152 127.193ZM96.1237 130.314V129.895L97.7979 129.055V121.238L96.2022 119.9V119.69L99.8122 118.221H100.021L100.257 120.477H100.362C100.763 119.813 101.129 119.319 101.46 118.995C101.792 118.672 102.105 118.462 102.402 118.366C102.698 118.269 103.004 118.221 103.318 118.221C103.475 118.221 103.645 118.243 103.828 118.287C104.011 118.331 104.163 118.379 104.285 118.431C104.495 118.519 104.678 118.624 104.835 118.746C104.992 118.868 105.07 119.008 105.07 119.166C105.07 119.323 105.035 119.481 104.966 119.638L104.416 121.028H104.233L103.318 120.661C103.108 120.591 102.908 120.543 102.716 120.517C102.524 120.49 102.332 120.477 102.14 120.477C101.39 120.477 100.771 120.836 100.283 121.553V129.055L102.193 129.895V130.314H96.1237ZM106.875 130.314V129.895L108.549 129.055V113.631L106.954 112.293V112.083L110.825 110.64H111.008V123.573L115.168 120.005V119.848L113.886 118.903V118.484H118.987V118.903L117.313 119.822L113.153 123.022L118.333 129.003L120.007 129.895V130.314H116.162L115.22 128.95L111.008 124.019V129.134L112.839 129.895V130.314H106.875Z" fill="black"/>
<mask id="mask0_62_2" style="mask-type:luminance" maskUnits="userSpaceOnUse" x="25" y="11" width="82" height="96">
<path d="M25.045 11.4233H106.955V106.268H25.045V11.4233Z" fill="white"/>
</mask>
<g mask="url(#mask0_62_2)">
<mask id="mask1_62_2" style="mask-type:luminance" maskUnits="userSpaceOnUse" x="25" y="11" width="82" height="96">
<path d="M25.045 11.4233H106.955V106.268H25.045V11.4233Z" fill="white"/>
</mask>
<g mask="url(#mask1_62_2)">
<path d="M63.2051 34.3256L62.8435 34.116L55.8452 30.0647L54.7123 29.409L50.0352 26.7016L49.6661 26.4878L49.5954 26.4469L47.2786 25.1057L44.8225 23.6832L38.0357 27.6121C33.7807 30.0748 29.741 32.4128 25.0441 35.1341V82.5576C29.741 85.279 33.7807 87.6172 38.0357 90.0799L43.4263 93.1995V46.5858C43.4263 46.0853 43.6926 45.6227 44.1249 45.3724C48.0041 43.1258 51.3588 41.1838 54.7134 39.2423C57.4482 37.6573 60.1853 36.0749 63.2051 34.3256ZM46.2209 70.2972C49.8047 72.3731 52.9604 74.1997 56.1105 76.0229C59.2605 77.8461 62.4134 79.6709 65.9997 81.748C70.6966 79.0267 74.7365 76.6884 78.9919 74.2255L85.7786 70.2972V47.3946L78.9919 43.4663C74.7374 41.0036 70.6958 38.6645 65.9997 35.9437C62.4157 38.0194 59.2603 39.8459 56.1105 41.6691C52.9606 43.4923 49.8072 45.3175 46.2209 47.3943V70.2972ZM100.066 31.1464C95.6394 28.584 91.438 26.1527 86.4778 23.2786L78.993 18.9459C74.7377 16.4829 70.6978 14.1447 66.0009 11.4233C62.4145 13.5004 59.2631 15.3245 56.1116 17.1488C53.3754 18.7327 50.6394 20.3154 47.6185 22.0652L48.6804 22.6817L56.1116 26.9835C59.4651 28.925 62.8209 30.867 66.6998 33.1136C71.698 36.0096 75.9256 38.4566 80.39 41.0406L87.8757 45.3738C88.308 45.6241 88.5743 46.0867 88.5743 46.5872V68.6791L91.4232 67.0291L91.6954 66.8716L92.6612 66.3111L100.067 62.0236L106.957 58.0356V35.1352L100.066 31.1464ZM87.8751 72.3193L80.3889 76.6528C75.9245 79.2366 71.6977 81.6836 66.699 84.5795C66.2666 84.8298 65.734 84.8298 65.3017 84.5795C61.423 82.3326 58.0684 80.3909 54.7137 78.4494C51.9778 76.8658 49.2419 75.2828 46.2214 73.5333V94.8175C49.8078 96.8943 52.959 98.7186 56.111 100.543C59.2631 102.367 62.414 104.191 66.0003 106.268C70.6972 103.547 74.7371 101.209 78.9925 98.7455L86.4778 94.4129C91.4374 91.5391 95.6388 89.1075 100.066 86.5451L106.955 82.5571V61.2725L101.463 64.4521C97.0356 67.014 92.8347 69.4455 87.8751 72.3193Z" fill="black"/>
</g>
</g>
</svg>
