<svg width="131" height="36" viewBox="0 0 131 36" fill="none" xmlns="http://www.w3.org/2000/svg">
<path d="M58.7457 15.3519C58.699 15.7719 58.6337 16.1733 58.5497 16.5559L57.0517 23.0099H55.1337L52.6277 13.2099H54.1117L55.6937 19.8039C55.787 20.1866 55.857 20.5973 55.9037 21.0359C55.9597 21.4746 55.9877 21.7359 55.9877 21.8199H56.2117C56.221 21.6986 56.249 21.4279 56.2957 21.0079C56.3517 20.5879 56.4217 20.1866 56.5057 19.8039L58.0037 13.2099H59.9077L61.4057 19.8039C61.4897 20.1866 61.555 20.5879 61.6017 21.0079C61.6577 21.4279 61.6903 21.6986 61.6997 21.8199H61.9237C61.9237 21.7359 61.947 21.4746 61.9937 21.0359C62.0497 20.5973 62.1243 20.1866 62.2177 19.8039L63.7997 13.2099H65.2837L62.7777 23.0099H60.8597L59.3617 16.5559C59.2777 16.1733 59.2077 15.7719 59.1517 15.3519C59.105 14.9319 59.077 14.6613 59.0677 14.5399H58.8437C58.8343 14.6613 58.8017 14.9319 58.7457 15.3519ZM68.4052 14.4559H65.4232V13.2099H72.8292V14.4559H69.8192V23.0099H68.4052V14.4559ZM78.166 13.2099H81.232C82.2773 13.2099 83.0753 13.4573 83.626 13.9519C84.1766 14.4373 84.452 15.1653 84.452 16.1359C84.452 17.4986 83.864 18.3993 82.688 18.8379L85.264 23.0099H83.71L81.414 19.1179C81.0966 19.1366 80.8493 19.1459 80.672 19.1459H79.566V23.0099H78.166V13.2099ZM80.91 18.0819C82.3753 18.0819 83.108 17.4333 83.108 16.1359C83.108 14.8759 82.4453 14.2459 81.12 14.2459H79.566V18.0819H80.91ZM86.8089 13.2099H92.6469V14.3719H88.2089V17.1859H92.2269V18.3619H88.2089V21.8479H92.6469V23.0099H86.8089V13.2099ZM100.785 23.0099L99.9446 20.4059H95.9966L95.0726 23.0099H93.6726L97.1726 13.2099H99.0486L102.185 23.0099H100.785ZM99.5806 19.2579L98.7686 16.6959C98.6379 16.2666 98.5166 15.8139 98.4046 15.3379C98.2926 14.8526 98.2226 14.5399 98.1946 14.3999H97.9706C97.9333 14.5399 97.8493 14.8526 97.7186 15.3379C97.5973 15.8139 97.4619 16.2666 97.3126 16.6959L96.4026 19.2579H99.5806ZM104.982 13.2099V21.8059H109.182V23.0099H103.582V13.2099H104.982ZM120.925 23.0099H119.525V16.1639C119.525 15.9773 119.544 15.6879 119.581 15.2959C119.619 14.8946 119.642 14.6286 119.651 14.4979L119.427 14.4559C119.399 14.5866 119.329 14.8619 119.217 15.2819C119.115 15.6926 119.012 16.0286 118.909 16.2899L116.361 23.0099H115.283L112.749 16.2899C112.647 16.0193 112.539 15.6786 112.427 15.2679C112.325 14.8573 112.259 14.5866 112.231 14.4559L112.007 14.4979C112.017 14.6286 112.04 14.8946 112.077 15.2959C112.115 15.6879 112.133 15.9773 112.133 16.1639V23.0099H110.733V13.2099H112.931L115.297 19.4959C115.447 19.9066 115.549 20.3546 115.605 20.8399C115.671 21.3253 115.703 21.6519 115.703 21.8199H115.955C115.955 21.6519 115.983 21.3253 116.039 20.8399C116.105 20.3546 116.212 19.9066 116.361 19.4959L118.727 13.2099H120.925V23.0099Z" fill="white"/>
<path d="M7.23325 19.2467L16.0962 0.784943L24.6435 19.2467L16.0962 35.2349L7.23325 19.2467Z" fill="white"/>
<path d="M0 31.7141L5.448 24.5402L10.1095 33.4429L0 31.7141Z" fill="white"/>
<path d="M31.5768 31.7141L26.1288 24.5402L21.4672 33.4429L31.5768 31.7141Z" fill="white"/>
</svg>
